<?xml version="1.0" encoding="UTF-8"?>
<svg xmlns="http://www.w3.org/2000/svg" width="1200" height="760" viewBox="0 0 1200 760">
  <rect x="0" y="0" width="1200" height="760" fill="#f7fafb" />
  <rect x="120" y="80" width="920" height="600" fill="#ffffff" stroke="#cad3d8" />

  <line x1="120" y1="680.00" x2="1040" y2="680.00" stroke="#d3d8db" stroke-width="1" />
<line x1="120" y1="560.00" x2="1040" y2="560.00" stroke="#d3d8db" stroke-width="1" />
<line x1="120" y1="440.00" x2="1040" y2="440.00" stroke="#d3d8db" stroke-width="1" />
<line x1="120" y1="320.00" x2="1040" y2="320.00" stroke="#d3d8db" stroke-width="1" />
<line x1="120" y1="200.00" x2="1040" y2="200.00" stroke="#d3d8db" stroke-width="1" />
<line x1="120" y1="80.00" x2="1040" y2="80.00" stroke="#d3d8db" stroke-width="1" />
  <line x1="120.00" y1="80" x2="120.00" y2="680" stroke="#eceff1" stroke-width="1" />
<line x1="215.17" y1="80" x2="215.17" y2="680" stroke="#eceff1" stroke-width="1" />
<line x1="310.34" y1="80" x2="310.34" y2="680" stroke="#eceff1" stroke-width="1" />
<line x1="437.24" y1="80" x2="437.24" y2="680" stroke="#eceff1" stroke-width="1" />
<line x1="532.41" y1="80" x2="532.41" y2="680" stroke="#eceff1" stroke-width="1" />
<line x1="627.59" y1="80" x2="627.59" y2="680" stroke="#eceff1" stroke-width="1" />
<line x1="722.76" y1="80" x2="722.76" y2="680" stroke="#eceff1" stroke-width="1" />
<line x1="849.66" y1="80" x2="849.66" y2="680" stroke="#eceff1" stroke-width="1" />
<line x1="944.83" y1="80" x2="944.83" y2="680" stroke="#eceff1" stroke-width="1" />
<line x1="1040.00" y1="80" x2="1040.00" y2="680" stroke="#eceff1" stroke-width="1" />

  <line x1="120" y1="680" x2="1040" y2="680" stroke="#24333b" stroke-width="2" />
  <line x1="120" y1="80" x2="120" y2="680" stroke="#0d6e6e" stroke-width="2" />
  <line x1="1040" y1="80" x2="1040" y2="680" stroke="#7b3527" stroke-width="2" />

  <path d="M 120.00 661.48 L 151.72 642.96 L 183.45 624.44 L 215.17 605.93 L 246.90 587.41 L 278.62 568.89 L 310.34 550.37 L 342.07 531.85 L 373.79 513.33 L 405.52 494.81 L 437.24 476.30 L 468.97 457.78 L 500.69 439.26 L 532.41 420.74 L 564.14 402.22 L 595.86 383.70 L 627.59 365.19 L 659.31 346.67 L 691.03 328.15 L 722.76 309.63 L 754.48 291.11 L 786.21 272.59 L 817.93 254.07 L 849.66 235.56 L 881.38 217.04 L 913.10 198.52 L 944.83 180.00 L 976.55 161.48 L 1008.28 142.96 L 1040.00 124.44" fill="none" stroke="#1b1b1b" stroke-width="3" stroke-linejoin="round" stroke-linecap="round" />
  <path d="M 120.00 661.48 L 151.72 658.29 L 183.45 654.26 L 215.17 649.40 L 246.90 643.70 L 278.62 637.18 L 310.34 629.81 L 342.07 621.62 L 373.79 612.59 L 405.52 602.73 L 437.24 592.04 L 468.97 580.51 L 500.69 568.15 L 532.41 554.95 L 564.14 540.93 L 595.86 526.06 L 627.59 510.37 L 659.31 493.84 L 691.03 476.48 L 722.76 458.29 L 754.48 439.26 L 786.21 419.40 L 817.93 398.70 L 849.66 377.18 L 881.38 354.81 L 913.10 331.62 L 944.83 307.59 L 976.55 282.73 L 1008.28 257.04 L 1040.00 230.51" fill="none" stroke="#0072B2" stroke-width="3" stroke-linejoin="round" stroke-linecap="round" />
  <g>
    <rect x="136" y="96" width="560" height="64" fill="#ffffff" fill-opacity="0.92" stroke="#b8c4cb" />
    <g>
      <line x1="146" y1="113" x2="170" y2="113" stroke="#1b1b1b" stroke-width="4" />
      <text x="178" y="117" font-size="13" fill="#1f2d34">Teleport (charges)</text>
    </g>
<g>
      <line x1="146" y1="135" x2="170" y2="135" stroke="#0072B2" stroke-width="4" />
      <text x="178" y="139" font-size="13" fill="#1f2d34">Teleport Recharge Speed (seconds)</text>
    </g>
  </g>

  <text x="120.00" y="708" font-size="14" text-anchor="middle" fill="#24333b">1</text>
<text x="215.17" y="708" font-size="14" text-anchor="middle" fill="#24333b">4</text>
<text x="310.34" y="708" font-size="14" text-anchor="middle" fill="#24333b">7</text>
<text x="437.24" y="708" font-size="14" text-anchor="middle" fill="#24333b">11</text>
<text x="532.41" y="708" font-size="14" text-anchor="middle" fill="#24333b">14</text>
<text x="627.59" y="708" font-size="14" text-anchor="middle" fill="#24333b">17</text>
<text x="722.76" y="708" font-size="14" text-anchor="middle" fill="#24333b">20</text>
<text x="849.66" y="708" font-size="14" text-anchor="middle" fill="#24333b">24</text>
<text x="944.83" y="708" font-size="14" text-anchor="middle" fill="#24333b">27</text>
<text x="1040.00" y="708" font-size="14" text-anchor="middle" fill="#24333b">30</text>
  <text x="106" y="685.00" font-size="13" text-anchor="end" fill="#204f4f">0.00e+0</text>
<text x="106" y="565.00" font-size="13" text-anchor="end" fill="#204f4f">6.48</text>
<text x="106" y="445.00" font-size="13" text-anchor="end" fill="#204f4f">12.96</text>
<text x="106" y="325.00" font-size="13" text-anchor="end" fill="#204f4f">19.44</text>
<text x="106" y="205.00" font-size="13" text-anchor="end" fill="#204f4f">25.92</text>
<text x="106" y="85.00" font-size="13" text-anchor="end" fill="#204f4f">32.4</text>
  <text x="1054" y="685.00" font-size="13" text-anchor="start" fill="#7b3527">0.00e+0x</text>
<text x="1054" y="565.00" font-size="13" text-anchor="start" fill="#7b3527">6.48x</text>
<text x="1054" y="445.00" font-size="13" text-anchor="start" fill="#7b3527">12.96x</text>
<text x="1054" y="325.00" font-size="13" text-anchor="start" fill="#7b3527">19.44x</text>
<text x="1054" y="205.00" font-size="13" text-anchor="start" fill="#7b3527">25.92x</text>
<text x="1054" y="85.00" font-size="13" text-anchor="start" fill="#7b3527">32.4x</text>

  <text x="600" y="34" font-size="24" text-anchor="middle" fill="#122028">Teleport vs Teleport Recharge Speed progression (L1..L30)</text>
  <text x="600" y="58" font-size="14" text-anchor="middle" fill="#45606d">Dual axis: all secondary lines are scaled to intersect at level 1 (right axis = multiplier vs L1)</text>

  <text x="600" y="736" font-size="14" text-anchor="middle" fill="#24333b">Level</text>
  <text x="45" y="60" font-size="13" text-anchor="middle" fill="#204f4f">Teleport (charges)</text>
  <text x="1135" y="60" font-size="13" text-anchor="middle" fill="#7b3527">Relative Effect (x of level 1)</text>

</svg>