<?xml version="1.0" encoding="UTF-8"?>
<svg xmlns="http://www.w3.org/2000/svg" width="1200" height="760" viewBox="0 0 1200 760">
  <rect x="0" y="0" width="1200" height="760" fill="#f7fafb" />
  <rect x="120" y="80" width="1000" height="600" fill="#ffffff" stroke="#cad3d8" />

  <line x1="120" y1="680.00" x2="1120" y2="680.00" stroke="#d3d8db" stroke-width="1" />
<line x1="120" y1="560.00" x2="1120" y2="560.00" stroke="#d3d8db" stroke-width="1" />
<line x1="120" y1="440.00" x2="1120" y2="440.00" stroke="#d3d8db" stroke-width="1" />
<line x1="120" y1="320.00" x2="1120" y2="320.00" stroke="#d3d8db" stroke-width="1" />
<line x1="120" y1="200.00" x2="1120" y2="200.00" stroke="#d3d8db" stroke-width="1" />
<line x1="120" y1="80.00" x2="1120" y2="80.00" stroke="#d3d8db" stroke-width="1" />
  <line x1="120.00" y1="80" x2="120.00" y2="680" stroke="#eceff1" stroke-width="1" />
<line x1="223.45" y1="80" x2="223.45" y2="680" stroke="#eceff1" stroke-width="1" />
<line x1="326.90" y1="80" x2="326.90" y2="680" stroke="#eceff1" stroke-width="1" />
<line x1="464.83" y1="80" x2="464.83" y2="680" stroke="#eceff1" stroke-width="1" />
<line x1="568.28" y1="80" x2="568.28" y2="680" stroke="#eceff1" stroke-width="1" />
<line x1="671.72" y1="80" x2="671.72" y2="680" stroke="#eceff1" stroke-width="1" />
<line x1="775.17" y1="80" x2="775.17" y2="680" stroke="#eceff1" stroke-width="1" />
<line x1="913.10" y1="80" x2="913.10" y2="680" stroke="#eceff1" stroke-width="1" />
<line x1="1016.55" y1="80" x2="1016.55" y2="680" stroke="#eceff1" stroke-width="1" />
<line x1="1120.00" y1="80" x2="1120.00" y2="680" stroke="#eceff1" stroke-width="1" />

  <line x1="120" y1="680" x2="1120" y2="680" stroke="#24333b" stroke-width="2" />
  <line x1="120" y1="80" x2="120" y2="680" stroke="#0d6e6e" stroke-width="2" />
  

  <path d="M 120.00 669.35 L 154.48 666.34 L 188.97 662.20 L 223.45 656.93 L 257.93 650.53 L 292.41 643.01 L 326.90 634.37 L 361.38 624.59 L 395.86 613.69 L 430.34 601.66 L 464.83 588.51 L 499.31 574.22 L 533.79 558.81 L 568.28 542.28 L 602.76 524.62 L 637.24 505.83 L 671.72 485.91 L 706.21 464.87 L 740.69 442.70 L 775.17 419.40 L 809.66 394.97 L 844.14 369.42 L 878.62 342.74 L 913.10 314.94 L 947.59 286.01 L 982.07 255.95 L 1016.55 224.76 L 1051.03 192.45 L 1085.52 159.01 L 1120.00 124.44" fill="none" stroke="#1b1b1b" stroke-width="3" stroke-linejoin="round" stroke-linecap="round" />
  
  <g>
    <rect x="136" y="96" width="560" height="42" fill="#ffffff" fill-opacity="0.92" stroke="#b8c4cb" />
    <g>
      <line x1="146" y1="113" x2="170" y2="113" stroke="#1b1b1b" stroke-width="4" />
      <text x="178" y="117" font-size="13" fill="#1f2d34">Shield Recharge Rate</text>
    </g>
  </g>

  <text x="120.00" y="708" font-size="14" text-anchor="middle" fill="#24333b">1</text>
<text x="223.45" y="708" font-size="14" text-anchor="middle" fill="#24333b">4</text>
<text x="326.90" y="708" font-size="14" text-anchor="middle" fill="#24333b">7</text>
<text x="464.83" y="708" font-size="14" text-anchor="middle" fill="#24333b">11</text>
<text x="568.28" y="708" font-size="14" text-anchor="middle" fill="#24333b">14</text>
<text x="671.72" y="708" font-size="14" text-anchor="middle" fill="#24333b">17</text>
<text x="775.17" y="708" font-size="14" text-anchor="middle" fill="#24333b">20</text>
<text x="913.10" y="708" font-size="14" text-anchor="middle" fill="#24333b">24</text>
<text x="1016.55" y="708" font-size="14" text-anchor="middle" fill="#24333b">27</text>
<text x="1120.00" y="708" font-size="14" text-anchor="middle" fill="#24333b">30</text>
  <text x="106" y="685.00" font-size="13" text-anchor="end" fill="#204f4f">0.00e+0</text>
<text x="106" y="565.00" font-size="13" text-anchor="end" fill="#204f4f">1.127</text>
<text x="106" y="445.00" font-size="13" text-anchor="end" fill="#204f4f">2.253</text>
<text x="106" y="325.00" font-size="13" text-anchor="end" fill="#204f4f">3.38</text>
<text x="106" y="205.00" font-size="13" text-anchor="end" fill="#204f4f">4.507</text>
<text x="106" y="85.00" font-size="13" text-anchor="end" fill="#204f4f">5.633</text>
  

  <text x="600" y="34" font-size="24" text-anchor="middle" fill="#122028">Shield Recharge Rate progression (L1..L30)</text>
  <text x="600" y="58" font-size="14" text-anchor="middle" fill="#45606d">Effect unit: HP/sec</text>

  <text x="600" y="736" font-size="14" text-anchor="middle" fill="#24333b">Level</text>
  <text x="45" y="60" font-size="13" text-anchor="middle" fill="#204f4f">Shield Recharge Rate (HP/sec)</text>
  

</svg>