<?xml version="1.0" encoding="UTF-8"?>
<svg xmlns="http://www.w3.org/2000/svg" width="1200" height="760" viewBox="0 0 1200 760">
  <rect x="0" y="0" width="1200" height="760" fill="#f7fafb" />
  <rect x="120" y="80" width="920" height="600" fill="#ffffff" stroke="#cad3d8" />

  <line x1="120" y1="680.00" x2="1040" y2="680.00" stroke="#d3d8db" stroke-width="1" />
<line x1="120" y1="560.00" x2="1040" y2="560.00" stroke="#d3d8db" stroke-width="1" />
<line x1="120" y1="440.00" x2="1040" y2="440.00" stroke="#d3d8db" stroke-width="1" />
<line x1="120" y1="320.00" x2="1040" y2="320.00" stroke="#d3d8db" stroke-width="1" />
<line x1="120" y1="200.00" x2="1040" y2="200.00" stroke="#d3d8db" stroke-width="1" />
<line x1="120" y1="80.00" x2="1040" y2="80.00" stroke="#d3d8db" stroke-width="1" />
  <line x1="120.00" y1="80" x2="120.00" y2="680" stroke="#eceff1" stroke-width="1" />
<line x1="215.17" y1="80" x2="215.17" y2="680" stroke="#eceff1" stroke-width="1" />
<line x1="310.34" y1="80" x2="310.34" y2="680" stroke="#eceff1" stroke-width="1" />
<line x1="437.24" y1="80" x2="437.24" y2="680" stroke="#eceff1" stroke-width="1" />
<line x1="532.41" y1="80" x2="532.41" y2="680" stroke="#eceff1" stroke-width="1" />
<line x1="627.59" y1="80" x2="627.59" y2="680" stroke="#eceff1" stroke-width="1" />
<line x1="722.76" y1="80" x2="722.76" y2="680" stroke="#eceff1" stroke-width="1" />
<line x1="849.66" y1="80" x2="849.66" y2="680" stroke="#eceff1" stroke-width="1" />
<line x1="944.83" y1="80" x2="944.83" y2="680" stroke="#eceff1" stroke-width="1" />
<line x1="1040.00" y1="80" x2="1040.00" y2="680" stroke="#eceff1" stroke-width="1" />

  <line x1="120" y1="680" x2="1040" y2="680" stroke="#24333b" stroke-width="2" />
  <line x1="120" y1="80" x2="120" y2="680" stroke="#0d6e6e" stroke-width="2" />
  <line x1="1040" y1="80" x2="1040" y2="680" stroke="#7b3527" stroke-width="2" />

  <path d="M 120.00 634.87 L 151.72 629.91 L 183.45 624.04 L 215.17 617.27 L 246.90 609.60 L 278.62 601.02 L 310.34 591.54 L 342.07 581.16 L 373.79 569.88 L 405.52 557.70 L 437.24 544.61 L 468.97 530.62 L 500.69 515.73 L 532.41 499.93 L 564.14 483.23 L 595.86 465.63 L 627.59 447.13 L 659.31 427.72 L 691.03 407.41 L 722.76 386.20 L 754.48 364.09 L 786.21 341.07 L 817.93 317.15 L 849.66 292.33 L 881.38 266.61 L 913.10 239.98 L 944.83 212.45 L 976.55 184.02 L 1008.28 154.68 L 1040.00 124.44" fill="none" stroke="#1b1b1b" stroke-width="3" stroke-linejoin="round" stroke-linecap="round" />
  <path d="M 120.00 634.87 L 151.72 581.16 L 183.45 483.23 L 215.17 341.07 L 246.90 154.68 L 278.62 -75.93 L 310.34 -350.78 L 342.07 -669.85 L 373.79 -1033.15 L 405.52 -1440.68 L 437.24 -1892.43 L 468.97 -2388.42 L 500.69 -2928.63 L 532.41 -3513.07 L 564.14 -4141.73 L 595.86 -4814.63 L 627.59 -5531.75 L 659.31 -6293.10 L 691.03 -7098.68 L 722.76 -7948.49 L 754.48 -8842.52 L 786.21 -9780.78 L 817.93 -10763.27 L 849.66 -11789.99 L 881.38 -12860.93 L 913.10 -13976.11 L 944.83 -15135.51 L 976.55 -16339.14 L 1008.28 -17586.99 L 1040.00 -18879.08" fill="none" stroke="#0072B2" stroke-width="3" stroke-linejoin="round" stroke-linecap="round" />
  <g>
    <rect x="136" y="96" width="560" height="64" fill="#ffffff" fill-opacity="0.92" stroke="#b8c4cb" />
    <g>
      <line x1="146" y1="113" x2="170" y2="113" stroke="#1b1b1b" stroke-width="4" />
      <text x="178" y="117" font-size="13" fill="#1f2d34">Iron Harvesting (iron/sec)</text>
    </g>
<g>
      <line x1="146" y1="135" x2="170" y2="135" stroke="#0072B2" stroke-width="4" />
      <text x="178" y="139" font-size="13" fill="#1f2d34">Iron Capacity (iron)</text>
    </g>
  </g>

  <text x="120.00" y="708" font-size="14" text-anchor="middle" fill="#24333b">1</text>
<text x="215.17" y="708" font-size="14" text-anchor="middle" fill="#24333b">4</text>
<text x="310.34" y="708" font-size="14" text-anchor="middle" fill="#24333b">7</text>
<text x="437.24" y="708" font-size="14" text-anchor="middle" fill="#24333b">11</text>
<text x="532.41" y="708" font-size="14" text-anchor="middle" fill="#24333b">14</text>
<text x="627.59" y="708" font-size="14" text-anchor="middle" fill="#24333b">17</text>
<text x="722.76" y="708" font-size="14" text-anchor="middle" fill="#24333b">20</text>
<text x="849.66" y="708" font-size="14" text-anchor="middle" fill="#24333b">24</text>
<text x="944.83" y="708" font-size="14" text-anchor="middle" fill="#24333b">27</text>
<text x="1040.00" y="708" font-size="14" text-anchor="middle" fill="#24333b">30</text>
  <text x="106" y="685.00" font-size="13" text-anchor="end" fill="#204f4f">0.00e+0</text>
<text x="106" y="565.00" font-size="13" text-anchor="end" fill="#204f4f">2.659</text>
<text x="106" y="445.00" font-size="13" text-anchor="end" fill="#204f4f">5.318</text>
<text x="106" y="325.00" font-size="13" text-anchor="end" fill="#204f4f">7.977</text>
<text x="106" y="205.00" font-size="13" text-anchor="end" fill="#204f4f">10.636</text>
<text x="106" y="85.00" font-size="13" text-anchor="end" fill="#204f4f">13.295</text>
  <text x="1054" y="685.00" font-size="13" text-anchor="start" fill="#7b3527">0.00e+0x</text>
<text x="1054" y="565.00" font-size="13" text-anchor="start" fill="#7b3527">2.659x</text>
<text x="1054" y="445.00" font-size="13" text-anchor="start" fill="#7b3527">5.318x</text>
<text x="1054" y="325.00" font-size="13" text-anchor="start" fill="#7b3527">7.977x</text>
<text x="1054" y="205.00" font-size="13" text-anchor="start" fill="#7b3527">10.636x</text>
<text x="1054" y="85.00" font-size="13" text-anchor="start" fill="#7b3527">13.295x</text>

  <text x="600" y="34" font-size="24" text-anchor="middle" fill="#122028">Iron Harvesting vs Iron Capacity progression (L1..L30)</text>
  <text x="600" y="58" font-size="14" text-anchor="middle" fill="#45606d">Dual axis: all secondary lines are scaled to intersect at level 1 (right axis = multiplier vs L1)</text>

  <text x="600" y="736" font-size="14" text-anchor="middle" fill="#24333b">Level</text>
  <text x="45" y="60" font-size="13" text-anchor="middle" fill="#204f4f">Iron Harvesting (iron/sec)</text>
  <text x="1135" y="60" font-size="13" text-anchor="middle" fill="#7b3527">Relative Effect (x of level 1)</text>

</svg>