<?xml version="1.0" encoding="UTF-8"?>
<svg xmlns="http://www.w3.org/2000/svg" width="1200" height="760" viewBox="0 0 1200 760">
  <rect x="0" y="0" width="1200" height="760" fill="#f7fafb" />
  <rect x="120" y="80" width="920" height="600" fill="#ffffff" stroke="#cad3d8" />

  <line x1="120" y1="680.00" x2="1040" y2="680.00" stroke="#d3d8db" stroke-width="1" />
<line x1="120" y1="560.00" x2="1040" y2="560.00" stroke="#d3d8db" stroke-width="1" />
<line x1="120" y1="440.00" x2="1040" y2="440.00" stroke="#d3d8db" stroke-width="1" />
<line x1="120" y1="320.00" x2="1040" y2="320.00" stroke="#d3d8db" stroke-width="1" />
<line x1="120" y1="200.00" x2="1040" y2="200.00" stroke="#d3d8db" stroke-width="1" />
<line x1="120" y1="80.00" x2="1040" y2="80.00" stroke="#d3d8db" stroke-width="1" />
  <line x1="120.00" y1="80" x2="120.00" y2="680" stroke="#eceff1" stroke-width="1" />
<line x1="215.17" y1="80" x2="215.17" y2="680" stroke="#eceff1" stroke-width="1" />
<line x1="310.34" y1="80" x2="310.34" y2="680" stroke="#eceff1" stroke-width="1" />
<line x1="437.24" y1="80" x2="437.24" y2="680" stroke="#eceff1" stroke-width="1" />
<line x1="532.41" y1="80" x2="532.41" y2="680" stroke="#eceff1" stroke-width="1" />
<line x1="627.59" y1="80" x2="627.59" y2="680" stroke="#eceff1" stroke-width="1" />
<line x1="722.76" y1="80" x2="722.76" y2="680" stroke="#eceff1" stroke-width="1" />
<line x1="849.66" y1="80" x2="849.66" y2="680" stroke="#eceff1" stroke-width="1" />
<line x1="944.83" y1="80" x2="944.83" y2="680" stroke="#eceff1" stroke-width="1" />
<line x1="1040.00" y1="80" x2="1040.00" y2="680" stroke="#eceff1" stroke-width="1" />

  <line x1="120" y1="680" x2="1040" y2="680" stroke="#24333b" stroke-width="2" />
  <line x1="120" y1="80" x2="120" y2="680" stroke="#0d6e6e" stroke-width="2" />
  <line x1="1040" y1="80" x2="1040" y2="680" stroke="#7b3527" stroke-width="2" />

  <path d="M 120.00 671.50 L 151.72 668.72 L 183.45 664.79 L 215.17 659.71 L 246.90 653.48 L 278.62 646.10 L 310.34 637.58 L 342.07 627.90 L 373.79 617.08 L 405.52 605.10 L 437.24 591.98 L 468.97 577.71 L 500.69 562.30 L 532.41 545.73 L 564.14 528.01 L 595.86 509.15 L 627.59 489.14 L 659.31 467.97 L 691.03 445.66 L 722.76 422.21 L 754.48 397.60 L 786.21 371.84 L 817.93 344.94 L 849.66 316.89 L 881.38 287.68 L 913.10 257.33 L 944.83 225.83 L 976.55 193.19 L 1008.28 159.39 L 1040.00 124.44" fill="none" stroke="#1b1b1b" stroke-width="3" stroke-linejoin="round" stroke-linecap="round" />
  <path d="M 120.00 671.50 L 151.72 669.10 L 183.45 665.80 L 215.17 661.60 L 246.90 656.50 L 278.62 650.50 L 310.34 643.60 L 342.07 635.80 L 373.79 627.11 L 405.52 617.51 L 437.24 607.02 L 468.97 595.63 L 500.69 583.34 L 532.41 570.15 L 564.14 556.06 L 595.86 541.07 L 627.59 525.19 L 659.31 508.40 L 691.03 490.72 L 722.76 472.13 L 754.48 452.65 L 786.21 432.27 L 817.93 410.99 L 849.66 388.81 L 881.38 365.74 L 913.10 341.76 L 944.83 316.89 L 976.55 291.11 L 1008.28 264.44 L 1040.00 236.87" fill="none" stroke="#0072B2" stroke-width="3" stroke-linejoin="round" stroke-linecap="round" />
  <g>
    <rect x="136" y="96" width="560" height="64" fill="#ffffff" fill-opacity="0.92" stroke="#b8c4cb" />
    <g>
      <line x1="146" y1="113" x2="170" y2="113" stroke="#1b1b1b" stroke-width="4" />
      <text x="178" y="117" font-size="13" fill="#1f2d34">Repair Speed (HP/sec)</text>
    </g>
<g>
      <line x1="146" y1="135" x2="170" y2="135" stroke="#0072B2" stroke-width="4" />
      <text x="178" y="139" font-size="13" fill="#1f2d34">Shield Recharge Rate (HP/sec)</text>
    </g>
  </g>

  <text x="120.00" y="708" font-size="14" text-anchor="middle" fill="#24333b">1</text>
<text x="215.17" y="708" font-size="14" text-anchor="middle" fill="#24333b">4</text>
<text x="310.34" y="708" font-size="14" text-anchor="middle" fill="#24333b">7</text>
<text x="437.24" y="708" font-size="14" text-anchor="middle" fill="#24333b">11</text>
<text x="532.41" y="708" font-size="14" text-anchor="middle" fill="#24333b">14</text>
<text x="627.59" y="708" font-size="14" text-anchor="middle" fill="#24333b">17</text>
<text x="722.76" y="708" font-size="14" text-anchor="middle" fill="#24333b">20</text>
<text x="849.66" y="708" font-size="14" text-anchor="middle" fill="#24333b">24</text>
<text x="944.83" y="708" font-size="14" text-anchor="middle" fill="#24333b">27</text>
<text x="1040.00" y="708" font-size="14" text-anchor="middle" fill="#24333b">30</text>
  <text x="106" y="685.00" font-size="13" text-anchor="end" fill="#204f4f">0.00e+0</text>
<text x="106" y="565.00" font-size="13" text-anchor="end" fill="#204f4f">1.412</text>
<text x="106" y="445.00" font-size="13" text-anchor="end" fill="#204f4f">2.825</text>
<text x="106" y="325.00" font-size="13" text-anchor="end" fill="#204f4f">4.237</text>
<text x="106" y="205.00" font-size="13" text-anchor="end" fill="#204f4f">5.65</text>
<text x="106" y="85.00" font-size="13" text-anchor="end" fill="#204f4f">7.062</text>
  <text x="1054" y="685.00" font-size="13" text-anchor="start" fill="#7b3527">0.00e+0x</text>
<text x="1054" y="565.00" font-size="13" text-anchor="start" fill="#7b3527">14.125x</text>
<text x="1054" y="445.00" font-size="13" text-anchor="start" fill="#7b3527">28.249x</text>
<text x="1054" y="325.00" font-size="13" text-anchor="start" fill="#7b3527">42.374x</text>
<text x="1054" y="205.00" font-size="13" text-anchor="start" fill="#7b3527">56.498x</text>
<text x="1054" y="85.00" font-size="13" text-anchor="start" fill="#7b3527">70.623x</text>

  <text x="600" y="34" font-size="24" text-anchor="middle" fill="#122028">Repair Speed vs Shield Recharge Rate progression (L1..L30)</text>
  <text x="600" y="58" font-size="14" text-anchor="middle" fill="#45606d">Dual axis: all secondary lines are scaled to intersect at level 1 (right axis = multiplier vs L1)</text>

  <text x="600" y="736" font-size="14" text-anchor="middle" fill="#24333b">Level</text>
  <text x="45" y="60" font-size="13" text-anchor="middle" fill="#204f4f">Repair Speed (HP/sec)</text>
  <text x="1135" y="60" font-size="13" text-anchor="middle" fill="#7b3527">Relative Effect (x of level 1)</text>

</svg>